<?xml version="1.0" standalone="no"?>
<!DOCTYPE svg PUBLIC "-//W3C//DTD SVG 20010904//EN"
 "http://www.w3.org/TR/2001/REC-SVG-20010904/DTD/svg10.dtd">
<svg version="1.0" xmlns="http://www.w3.org/2000/svg"
 width="500.000000pt" height="500.000000pt" viewBox="0 0 500.000000 500.000000"
 preserveAspectRatio="xMidYMid meet">
<metadata>
Created by potrace 1.11, written by Peter Selinger 2001-2013
</metadata>
<g transform="translate(0.000000,500.000000) scale(0.100000,-0.100000)"
fill="#000000" stroke="none">
<path d="M0 2500 l0 -2500 2500 0 2500 0 0 2500 0 2500 -2500 0 -2500 0 0
-2500z m3612 1189 c480 -214 874 -392 876 -394 2 -2 1 -23 -3 -48 -7 -43 -8
-44 -53 -54 -26 -6 -136 -30 -244 -53 l-198 -43 0 -727 c0 -573 3 -729 13
-732 6 -3 117 -25 245 -49 l232 -43 0 -48 0 -47 -62 -19 c-35 -11 -453 -135
-930 -277 l-866 -256 -843 276 c-464 152 -850 281 -858 288 -33 27 -130 169
-174 255 -58 111 -120 295 -144 422 -24 132 -24 402 1 525 47 237 139 431 271
573 50 54 50 54 925 448 565 254 887 394 908 394 22 0 320 -129 904 -391z"/>
<path d="M2643 3907 c-69 -72 -133 -157 -133 -175 0 -5 322 -129 716 -276
l717 -268 178 38 c99 21 176 41 172 45 -7 7 -1568 709 -1577 709 -2 0 -35 -33
-73 -73z"/>
<path d="M1737 3550 c-501 -225 -757 -346 -778 -366 -76 -72 -167 -228 -214
-368 -50 -149 -59 -209 -59 -411 0 -207 14 -300 70 -462 46 -134 165 -348 218
-392 17 -14 1498 -503 1504 -496 2 2 -9 23 -24 47 -42 66 -141 289 -185 418
-186 538 -224 1117 -108 1630 50 220 165 493 274 652 31 44 54 82 53 83 -2 1
-339 -150 -751 -335z"/>
<path d="M2411 3562 c-90 -180 -165 -433 -197 -667 -24 -176 -24 -529 0 -710
40 -298 105 -545 207 -791 17 -41 34 -74 37 -74 4 0 327 72 717 159 l710 158
0 733 0 733 -650 243 c-357 134 -680 255 -717 268 l-68 26 -39 -78z"/>
<path d="M3220 1389 c-393 -88 -716 -162 -718 -164 -6 -6 42 -87 92 -158 35
-49 45 -57 66 -53 33 6 1584 467 1589 472 2 2 2 4 -1 4 -2 0 -74 13 -159 30
-85 16 -154 30 -154 29 0 0 -322 -72 -715 -160z"/>
</g>
</svg>
